<svg xmlns="http://www.w3.org/2000/svg" width="480.001" height="480.001" viewBox="0 0 480.001 480.001">
  <path id="Embleem" d="M240,480C107.663,480,0,372.337,0,240S107.663,0,240,0,480,107.664,480,240,372.337,480,240,480ZM183.548,351.343a2.928,2.928,0,0,0-2.318,1.149,3.035,3.035,0,0,0-.553,2.624c14.13,55.742,37.423,91.76,59.341,91.76,10.168,0,20.878-7.789,30.973-22.524,10.115-14.765,19.183-35.882,26.224-61.07a2.991,2.991,0,0,1,2.528-2.153c9.607-1.049,19.339-2.42,28.927-4.075a3.049,3.049,0,0,1,.513-.044,2.928,2.928,0,0,1,2.312,1.137,3.021,3.021,0,0,1,.556,2.6,343.876,343.876,0,0,1-11.368,37.537,230.94,230.94,0,0,1-14.642,32.247,2.979,2.979,0,0,0,.02,2.988,2.941,2.941,0,0,0,2.51,1.475,3.013,3.013,0,0,0,1.017-.181,205.656,205.656,0,0,0,39.628-19.231,208.183,208.183,0,0,0,82.847-99.251,2.853,2.853,0,0,0-.272-2.7,3.058,3.058,0,0,0-2.5-1.333,3.009,3.009,0,0,0-1.552.437c-15.6,9.26-34.175,17.2-55.222,23.607a407.657,407.657,0,0,1-70.011,14.306c-.239.028-.55.067-.851.105h-.008c-.557.07-1.132.143-1.233.143-.01,0-.015,0-.016,0-13.062,1.5-24.9,2.464-36.18,2.952-7.113.479-13.211.533-18.368.546h-.841c-.4,0-.771-.017-1.133-.033-.318-.014-.647-.029-.989-.032-.468,0-.932.017-1.38.032-.485.016-.987.033-1.493.033a527.658,527.658,0,0,1-56.157-3.038A3.017,3.017,0,0,0,183.548,351.343ZM50.8,312.374a3.088,3.088,0,0,0-2.522,1.349,2.887,2.887,0,0,0-.271,2.731,208.218,208.218,0,0,0,82.8,99.131A205.653,205.653,0,0,0,170.4,434.8a3.016,3.016,0,0,0,1.017.181,2.941,2.941,0,0,0,2.51-1.477,2.984,2.984,0,0,0,.019-3,227.011,227.011,0,0,1-13.882-30.166,333.348,333.348,0,0,1-10.979-34.926c-3.131-12.143-5.829-25.062-8.018-38.4-2.157-13.137-3.839-26.789-5-40.578-.456-3.411-2-34.489-2-46.442a548.473,548.473,0,0,1,4.577-70.3s.008-.071.025-.18.037-.25.048-.344c1.618-12.367,3.555-24.063,5.757-34.763l0-.013a.176.176,0,0,0,0-.026,373.52,373.52,0,0,1,12.409-46A239.464,239.464,0,0,1,173.954,49.47a2.975,2.975,0,0,0-.017-2.987,2.928,2.928,0,0,0-2.5-1.472,2.99,2.99,0,0,0-1.012.181,205.629,205.629,0,0,0-39.6,19.212A208.173,208.173,0,0,0,48.01,163.543a2.889,2.889,0,0,0,.271,2.733,3.088,3.088,0,0,0,2.522,1.349,3.049,3.049,0,0,0,1.566-.439A231.709,231.709,0,0,1,87.278,150.58,331.581,331.581,0,0,1,129.2,137.811a3.069,3.069,0,0,1,.707-.083,3.022,3.022,0,0,1,2.327,1.1,2.877,2.877,0,0,1,.628,2.4c-1.738,9.445-3.243,19.278-4.474,29.227a3.006,3.006,0,0,1-2.175,2.495c-28.041,7.67-51.616,18.1-68.176,30.157C50,208.958,43.78,215.079,39.559,221.294c-4.269,6.286-6.433,12.58-6.433,18.707s2.165,12.422,6.435,18.708C43.783,264.926,50,271.047,58.045,276.9c16.565,12.061,40.146,22.49,68.194,30.161a2.979,2.979,0,0,1,2.164,2.472c1.237,10.016,2.737,19.843,4.459,29.208a2.9,2.9,0,0,1-.636,2.42,3.043,3.043,0,0,1-2.342,1.1,3.089,3.089,0,0,1-.713-.084,331.268,331.268,0,0,1-41.911-12.767,231.589,231.589,0,0,1-34.894-16.6A3.045,3.045,0,0,0,50.8,312.374Zm121.226-70.1a3.111,3.111,0,0,0-3.012,3.043,173.727,173.727,0,0,0,.79,23.985c.178,2.18.361,4.43.515,6.672,1.252,13.549,5.706,23.555,13.616,30.59a44.6,44.6,0,0,0,8.969,6.124,61.387,61.387,0,0,0,10.416,4.217,103.907,103.907,0,0,0,23.134,3.975l1.46.045.275.008c4.283.132,8.709.268,13.182.27.213,0,.427-.005.641-.007h.021c.223,0,.446,0,.667-.007.89,0,1.763-.034,2.607-.067.7-.027,1.414-.055,2.137-.064,2.373-.095,4.5-.184,6.533-.311a157.686,157.686,0,0,0,29.75-4.224c7.176-1.874,13-4.347,17.322-7.35a27.075,27.075,0,0,0,5.01-4.436,21.175,21.175,0,0,0,3.115-4.723,23.4,23.4,0,0,0,2.162-9.649c.137-4.993-.61-8.792-2.351-11.955a17.284,17.284,0,0,0-3.638-4.539,27.017,27.017,0,0,0-5.642-3.827c-4.4-2.309-10.244-4.3-18.384-6.26-7.358-1.773-16.506-3.512-29.661-5.638-.152-.02-15.448-2.059-32.786-5.009-10.14-1.725-18.94-3.413-26.156-5.018-9.02-2.006-15.576-3.886-19.486-5.589A3.014,3.014,0,0,0,172.026,242.273ZM344.8,170.615a3.057,3.057,0,0,0-2.284,1.036,2.932,2.932,0,0,0-.728,2.326c1.086,8.91,1.969,18.149,2.625,27.463.044.509.13,1,.213,1.47a14.557,14.557,0,0,1,.229,1.7l-.208.013c.874,13.609,1.281,24.85,1.281,35.377a545.15,545.15,0,0,1-4.137,66.026,2.924,2.924,0,0,0,.724,2.323,3.03,3.03,0,0,0,3.013.947,290.656,290.656,0,0,0,42.255-13.688,173.234,173.234,0,0,0,31.9-17.017c8.759-6.08,15.541-12.469,20.157-18.988,4.663-6.585,7.027-13.18,7.027-19.6s-2.364-13.018-7.027-19.6c-4.617-6.52-11.4-12.909-20.157-18.989a173.208,173.208,0,0,0-31.9-17.017A290.571,290.571,0,0,0,345.531,170.7,3.055,3.055,0,0,0,344.8,170.615ZM238.841,158.737l-.563.007c-.24,0-.511,0-.768.011-.884,0-1.754.033-2.595.065H234.9c-.694.026-1.412.054-2.135.062-2.153.084-4.434.181-6.532.312a157.716,157.716,0,0,0-29.751,4.224c-7.176,1.874-13,4.347-17.322,7.35a27.069,27.069,0,0,0-5.01,4.435,21.176,21.176,0,0,0-3.115,4.723,23.415,23.415,0,0,0-2.163,9.65c-.137,4.993.61,8.792,2.351,11.955a17.281,17.281,0,0,0,3.639,4.538,27.016,27.016,0,0,0,5.643,3.826c4.4,2.309,10.244,4.3,18.384,6.259,7.357,1.773,16.5,3.512,29.66,5.639.152.02,15.424,2.055,32.787,5.009,10.14,1.725,18.941,3.413,26.157,5.017,9.02,2.006,15.576,3.885,19.485,5.587a3.015,3.015,0,0,0,1.208.258,3.113,3.113,0,0,0,3.012-3.043,174.144,174.144,0,0,0-.79-23.98c-.177-2.178-.361-4.429-.515-6.678-1.255-13.551-5.71-23.557-13.619-30.589a44.617,44.617,0,0,0-8.969-6.124,61.387,61.387,0,0,0-10.416-4.218,103.784,103.784,0,0,0-23.132-3.974l-1.375-.042-.242-.007C247.822,158.879,243.356,158.742,238.841,158.737ZM300.4,129.1c.21,0,3.6.408,5.372.63l1.2.152.093.012c3.021.38,6.144.773,9.153,1.224,5.236.772,10.518,1.657,16.147,2.706.482.091.981.173,1.463.252.562.092,1.14.188,1.691.3h.005a351.4,351.4,0,0,1,50.828,13.752,238.135,238.135,0,0,1,41.4,19.149,2.994,2.994,0,0,0,1.546.436,3.045,3.045,0,0,0,2.485-1.328,2.841,2.841,0,0,0,.271-2.685A208.22,208.22,0,0,0,349.21,64.423a205.682,205.682,0,0,0-39.635-19.236,3.014,3.014,0,0,0-1.016-.181,2.941,2.941,0,0,0-2.51,1.475,2.979,2.979,0,0,0-.019,2.989,231.076,231.076,0,0,1,14.63,32.219,343.629,343.629,0,0,1,11.363,37.5,3.025,3.025,0,0,1-.557,2.6,2.916,2.916,0,0,1-2.3,1.132,3.038,3.038,0,0,1-.515-.045c-9.432-1.622-19.164-2.981-28.927-4.041a2.986,2.986,0,0,1-2.531-2.154c-7.04-25.179-16.106-46.288-26.218-61.046-10.092-14.73-20.8-22.516-30.966-22.516-21.906,0-45.192,35.988-59.323,91.685a3.092,3.092,0,0,0,.558,2.677,2.971,2.971,0,0,0,2.355,1.165,3.073,3.073,0,0,0,.318-.017c16.672-1.778,33.823-2.759,50.979-2.917.935-.031,1.849-.049,2.817-.068l.95-.019c.227,0,.453-.007.671-.014s.448-.014.675-.014c.181,0,.362.005.536.011s.353.011.536.011c.6-.006,1.211-.009,1.818-.009,3.606,0,7.437.1,11.385.308,15.724.4,31.236,1.47,46.106,3.178C300.389,129.1,300.391,129.1,300.4,129.1Z" transform="translate(0 0)" fill="#171412"/>
</svg>
